<?xml version="1.0" encoding="UTF-8"?>
<svg width="48px" height="48px" viewBox="0 0 48 48" version="1.1" xmlns="http://www.w3.org/2000/svg" xmlns:xlink="http://www.w3.org/1999/xlink">
    <!-- Generator: Sketch 46.2 (44496) - http://www.bohemiancoding.com/sketch -->
    <title>051-kiss-1</title>
    <desc>Created with Sketch.</desc>
    <defs>
        <polygon id="path-1" points="0.005625 48 0.005625 9.375e-05 47.9999063 9.375e-05 47.9999063 48"></polygon>
    </defs>
    <g id="Main---UI-" stroke="none" stroke-width="1" fill="none" fill-rule="evenodd">
        <g id="List-view-meet-kinksters" transform="translate(-261.000000, -497.000000)">
            <g id="Long-List-User-View" transform="translate(-89.000000, 253.000000)">
                <g id="051-kiss-1" transform="translate(350.000000, 244.000000)">
                    <g id="Group-3">
                        <mask id="mask-2" fill="white">
                            <use xlink:href="#path-1"></use>
                        </mask>
                        <g id="Clip-2"></g>
                        <path d="M44.3685938,11.3010937 C42.0584063,7.603125 38.7882188,4.600875 34.9116563,2.61871875 C34.4505938,2.3829375 33.8851875,2.5655625 33.6492188,3.02690625 C33.4133438,3.48825 33.5960625,4.0535625 34.0575938,4.28934375 C37.631625,6.11690625 40.6469063,8.88534375 42.7771875,12.2952187 C44.9664375,15.7994062 46.1235,19.846875 46.1235,24 C46.1235,36.199125 36.1988438,46.1235937 23.9999063,46.1235937 C11.8009688,46.1235937 1.87640625,36.199125 1.87640625,24 C1.87640625,11.8009687 11.8009688,1.8765 23.9999063,1.8765 C24.5181563,1.8765 24.9381563,1.45640625 24.9381563,0.93825 C24.9381563,0.4201875 24.5181563,9.375e-05 23.9999063,9.375e-05 C10.76625,9.375e-05 0,10.7664375 0,24 C0,37.2335625 10.76625,48 23.9999063,48 C37.2336563,48 47.9999063,37.23375 47.9999063,24 C48,19.4950312 46.7443125,15.1037812 44.3685938,11.3010937" id="Fill-1" fill="#0A0B09" mask="url(#mask-2)"></path>
                    </g>
                    <path d="M18.5120353,14 C16.7492952,14 15.0689892,15.0028285 14.1266818,16.6172445 C13.8742273,17.049635 14.0108476,17.6105839 14.4319901,17.8698905 C14.8529549,18.1290146 15.3989033,17.9887774 15.6515355,17.5562044 C16.2743218,16.4890511 17.3704825,15.8261861 18.5120353,15.8261861 C19.6824578,15.8261861 20.7638728,16.4793796 21.3342495,17.5310219 C21.496897,17.8309307 21.7996292,18 22.1116886,18 C22.2579026,18 22.4064261,17.9627737 22.5434906,17.8844891 C22.9724501,17.6390511 23.1263923,17.0830292 22.8874399,16.642427 C22.0034938,15.0125 20.3270075,14 18.5120353,14" id="Fill-4" fill="#0A0B09"></path>
                    <path d="M31.1266818,16.6172445 C30.8742273,17.049635 31.0108476,17.6105839 31.4319901,17.8698905 C31.8529549,18.1290146 32.3989033,17.9887774 32.6515355,17.5562044 C33.2743218,16.4890511 34.3704825,15.8261861 35.5120353,15.8261861 C36.6824578,15.8261861 37.7638728,16.4793796 38.3342495,17.5310219 C38.496897,17.8309307 38.7996292,18 39.1116886,18 C39.2579026,18 39.4064261,17.9627737 39.5434906,17.8844891 C39.9724501,17.6390511 40.1263923,17.0830292 39.8874399,16.642427 C39.0035826,15.0125 37.3270075,14 35.5121242,14 C33.7492952,14 32.069078,15.0028285 31.1266818,16.6172445" id="Fill-5" fill="#0A0B09"></path>
                    <path d="M29.0090524,29.7060223 C29.9350414,29.5193292 30.8608563,29.3326362 31.7868454,29.1459431 C32.4790735,29.0064127 34.2056826,28.339239 34.2511289,29.6470224 C34.2721107,30.2529593 33.8632687,30.459319 33.4554713,30.725797 C32.9360608,31.065349 32.4168244,31.4049943 31.8974138,31.7444531 C31.3983757,32.0708631 30.9269362,32.6197574 31.3520589,33.2655867 C31.6206444,33.6738321 32.2791797,33.846451 32.6836687,34.0354742 C33.0656958,34.2140583 33.8281828,34.4258239 34.0853632,34.7840173 C34.4968172,35.356959 34.0926764,36.0979524 33.4791521,36.1366332 C32.4098594,36.2041148 31.2548109,35.9703524 30.1862147,35.8904742 C29.8697451,35.8668929 29.5382139,35.8092912 29.2206125,35.8183322 C28.2897481,35.8449894 27.8919628,37.2128911 28.8429386,37.6139596 C29.1553162,37.7456607 29.5657254,37.71425 29.8940354,37.7386702 C30.5013783,37.7840618 31.1086342,37.8294535 31.7159771,37.8749384 C32.8563122,37.9601293 34.065339,38.2660338 35.039212,37.4302492 C35.8133653,36.7658717 36.162396,35.6523311 35.9105263,34.6228629 C35.629752,33.4752086 34.8614319,33.0601591 33.946848,32.5900245 C35.1394201,31.8104435 36.1980913,30.9412909 35.9684223,29.2395227 C35.7331814,27.4960911 34.1767781,26.7729002 32.7076107,27.061841 C31.6314401,27.2734203 30.5570108,27.4953454 29.4816237,27.7121443 C29.1779523,27.7733811 28.8060244,27.7921156 28.5170663,27.9259605 C27.596214,28.352754 27.9948698,29.9110771 29.0090524,29.7060223" id="Fill-6" fill="#0A0B09"></path>
                    <path d="M31,1 C31.5523134,1 32,1.44776418 32,2.00004996 C32,2.55233575 31.5523134,3 31,3 C30.4476866,3 30,2.55233575 30,2.00004996 C30,1.44776418 30.4476866,1 31,1" id="Fill-7" fill="#0A0B09"></path>
                </g>
            </g>
        </g>
    </g>
</svg>