<?xml version="1.0" encoding="UTF-8"?>
<svg width="48px" height="48px" viewBox="0 0 48 48" version="1.1" xmlns="http://www.w3.org/2000/svg" xmlns:xlink="http://www.w3.org/1999/xlink">
    <!-- Generator: Sketch 46.2 (44496) - http://www.bohemiancoding.com/sketch -->
    <title>051-scared-1</title>
    <desc>Created with Sketch.</desc>
    <defs>
        <polygon id="path-1" points="0.005625 48 0.005625 0 48 0 48 48"></polygon>
    </defs>
    <g id="Main---UI-" stroke="none" stroke-width="1" fill="none" fill-rule="evenodd">
        <g id="List-view-meet-kinksters" transform="translate(-538.000000, -497.000000)">
            <g id="Long-List-User-View" transform="translate(-89.000000, 253.000000)">
                <g id="051-scared-1" transform="translate(627.000000, 244.000000)">
                    <path d="M19.7014463,22.5077859 C16.5738399,22.5077859 14.0295048,19.9634195 14.0295048,16.8358671 C14.0295048,13.7083147 16.5738399,11.1637634 19.7014463,11.1637634 C22.8290527,11.1637634 25.3734803,13.7083147 25.3734803,16.8358671 C25.3734803,19.9634195 22.8289603,22.5077859 19.7014463,22.5077859 Z M27.2238806,16.8358671 C27.2238806,12.687924 23.849246,9.31343284 19.7014463,9.31343284 C15.5536467,9.31343284 12.1791045,12.687924 12.1791045,16.8358671 C12.1791045,20.9837177 15.5535542,24.358209 19.7014463,24.358209 C23.8494309,24.358209 27.2238806,20.9837177 27.2238806,16.8358671 L27.2238806,16.8358671 Z" id="Fill-1" fill="#0A0B09"></path>
                    <path d="M21.1342747,15.761194 C21.7277758,15.761194 22.2089552,16.2422901 22.2089552,16.8358209 C22.2089552,17.4293517 21.7277758,17.9104478 21.1342747,17.9104478 C20.5407735,17.9104478 20.0597015,17.4293517 20.0597015,16.8358209 C20.0597015,16.2422901 20.5407735,15.761194 21.1342747,15.761194" id="Fill-2" fill="#0A0B09"></path>
                    <path d="M40.4775582,15.761194 C41.0710594,15.761194 41.5522388,16.2422901 41.5522388,16.8358209 C41.5522388,17.4293517 41.0710594,17.9104478 40.4775582,17.9104478 C39.8841645,17.9104478 39.4029851,17.4293517 39.4029851,16.8358209 C39.4029851,16.2422901 39.8841645,15.761194 40.4775582,15.761194" id="Fill-3" fill="#0A0B09"></path>
                    <g id="Group-7">
                        <mask id="mask-2" fill="white">
                            <use xlink:href="#path-1"></use>
                        </mask>
                        <g id="Clip-5"></g>
                        <path d="M22.1916563,36.1703438 C22.636125,36.4365 23.2124063,36.2924063 23.47875,35.8480313 C24.72225,33.7739063 26.9188125,32.4853125 29.2111875,32.4853125 C31.5644063,32.4853125 33.7385625,33.7640625 34.885125,35.8221563 C35.0567813,36.1304063 35.3761875,36.3040313 35.705625,36.3040313 C35.860125,36.3040313 36.0166875,36.2657813 36.1613438,36.1853438 C36.6139688,35.9331563 36.7765313,35.3618438 36.5243438,34.9092188 C35.04675,32.2568438 32.2445625,30.6090938 29.2111875,30.6090938 C26.2634063,30.6090938 23.4500625,32.2469063 21.8694375,34.8833438 C21.603,35.3277188 21.7471875,35.904 22.1916563,36.1703438" id="Fill-4" fill="#0A0B09" mask="url(#mask-2)"></path>
                        <path d="M44.4962813,16.8615 C44.4962813,20.0330625 41.9161875,22.6130625 38.744625,22.6130625 C35.5729688,22.6130625 32.992875,20.0329687 32.992875,16.8615 C32.992875,13.6900312 35.5729688,11.10975 38.744625,11.10975 C40.9228125,11.10975 42.8220938,12.3270938 43.7980313,14.1169687 C43.876125,14.272875 43.9520625,14.4294375 44.0262188,14.5864687 C44.3281875,15.2847187 44.4962813,16.0536562 44.4962813,16.8615 Z M45.7180312,13.77525 C45.6449062,13.6105312 45.5667187,13.448625 45.4824375,13.2902812 C45.4701562,13.265625 45.4587187,13.2406875 45.4463437,13.2162187 C45.427125,13.1780625 45.4048125,13.1425312 45.3814687,13.108125 C44.06925,10.7969062 41.5869375,9.23325 38.744625,9.23325 C34.5383437,9.23325 31.1164687,12.655125 31.1164687,16.8614062 C31.1164687,21.0675 34.5383437,24.489375 38.744625,24.489375 C41.8748437,24.489375 44.5695937,22.5934687 45.744,19.8900937 C45.9950625,21.2319375 46.1235,22.6035 46.1235,23.9999062 C46.1235,36.1989375 36.1989375,46.1234062 23.9999062,46.1234062 C11.8007812,46.1234062 1.87640625,36.199125 1.87640625,24 C1.87640625,11.800875 11.800875,1.87640625 24,1.87640625 C27.910125,1.87640625 31.7525625,2.90990625 35.112,4.86515625 C35.5596562,5.1256875 36.1341562,4.9741875 36.3946875,4.52615625 C36.6553125,4.07840625 36.5037187,3.50409375 36.055875,3.243375 C32.4102187,1.121625 28.24125,0 24,0 C10.76625,0 0,10.76625 0,24 C0,37.2335625 10.76625,48 24,48 C37.23375,48 48,37.23375 48,24.0000937 C48,20.4167812 47.2319062,16.9804687 45.7180312,13.77525 L45.7180312,13.77525 Z" id="Fill-6" fill="#0A0B09" mask="url(#mask-2)"></path>
                    </g>
                    <path d="M38.3284119,5.01492537 C38.9218057,5.01492537 39.4029851,5.49610479 39.4029851,6.08960593 C39.4029851,6.68310707 38.9218057,7.1641791 38.3284119,7.1641791 C37.7349108,7.1641791 37.2537313,6.68310707 37.2537313,6.08960593 C37.2537313,5.49610479 37.7349108,5.01492537 38.3284119,5.01492537" id="Fill-8" fill="#0A0B09"></path>
                </g>
            </g>
        </g>
    </g>
</svg>