<?xml version="1.0" encoding="UTF-8"?>
<svg width="30px" height="30px" viewBox="0 0 86 84" version="1.1" xmlns="http://www.w3.org/2000/svg" xmlns:xlink="http://www.w3.org/1999/xlink">
    <!-- Generator: Sketch 46.2 (44496) - http://www.bohemiancoding.com/sketch -->
    <title>dungeon-icon-nooutline</title>
    <desc>Created with Sketch.</desc>
    <defs>
        <ellipse id="path-1" cx="34.3173333" cy="34.0254873" rx="34.3173333" ry="34.0254873"></ellipse>
        <filter x="-18.9%" y="-16.2%" width="137.9%" height="138.2%" filterUnits="objectBoundingBox" id="filter-2">
            <feOffset dx="0" dy="2" in="SourceAlpha" result="shadowOffsetOuter1"></feOffset>
            <feGaussianBlur stdDeviation="4" in="shadowOffsetOuter1" result="shadowBlurOuter1"></feGaussianBlur>
            <feColorMatrix values="0 0 0 0 0   0 0 0 0 0   0 0 0 0 0  0 0 0 0.200435915 0" type="matrix" in="shadowBlurOuter1"></feColorMatrix>
        </filter>
    </defs>
    <g id="Main---UI-" stroke="none" stroke-width="1" fill="none" fill-rule="evenodd">
        <g id="Dungeon-Finder" transform="translate(-391.000000, -1113.000000)">
            <g id="chats" transform="translate(302.504000, 611.100450)">
                <g id="dungeon-icon-nooutline" transform="translate(97.000000, 507.000000)">
                    <g id="chat" transform="translate(0.192000, 0.737631)">
                        <g id="dot">
                            <use fill="black" fill-opacity="1" filter="url(#filter-2)" xlink:href="#path-1"></use>
                            <use fill="#D91F26" fill-rule="evenodd" xlink:href="#path-1"></use>
                        </g>
                    </g>
                    <g id="dungeon" transform="translate(15.000000, 16.480894)" fill-rule="nonzero" fill="#FFFFFF">
                        <path d="M38.4711014,31.6245495 L37.1669963,31.6245495 L37.1669963,0.978078849 C37.1669963,0.58684731 36.9061752,0.326026283 36.5149437,0.326026283 L31.2985232,0.326026283 C30.9072916,0.326026283 30.6464706,0.58684731 30.6464706,0.978078849 L30.6464706,5.54244681 L29.3423655,5.54244681 L29.3423655,2.28218398 C29.3423655,1.89095244 29.0815444,1.63013142 28.6903129,1.63013142 L24.7779975,1.63013142 C24.386766,1.63013142 24.1259449,1.89095244 24.1259449,2.28218398 L24.1259449,5.54244681 L22.8218398,5.54244681 L22.8218398,0.978078849 C22.8218398,0.58684731 22.5610188,0.326026283 22.1697872,0.326026283 L16.9533667,0.326026283 C16.5621352,0.326026283 16.3013142,0.58684731 16.3013142,0.978078849 L16.3013142,5.54244681 L14.997209,5.54244681 L14.997209,2.28218398 C14.997209,1.89095244 14.736388,1.63013142 14.3451565,1.63013142 L10.4328411,1.63013142 C10.0416095,1.63013142 9.78078849,1.89095244 9.78078849,2.28218398 L9.78078849,5.54244681 L8.47668336,5.54244681 L8.47668336,0.978078849 C8.47668336,0.58684731 8.21586233,0.326026283 7.82463079,0.326026283 L2.60821026,0.326026283 C2.21697872,0.326026283 1.9561577,0.58684731 1.9561577,0.978078849 L1.9561577,31.6245495 L0.652052566,31.6245495 C0.260821026,31.6245495 0,31.8853705 0,32.276602 L0,35.5368649 C0,35.9280964 0.260821026,36.1889174 0.652052566,36.1889174 L38.4711014,36.1889174 C38.8623329,36.1889174 39.123154,35.9280964 39.123154,35.5368649 L39.123154,32.276602 C39.123154,31.8853705 38.8623329,31.6245495 38.4711014,31.6245495 Z M3.26026283,23.7999187 L7.82463079,23.7999187 L7.82463079,22.4958135 L3.26026283,22.4958135 L3.26026283,11.4109199 L10.4328411,11.4109199 L10.4328411,10.1068148 L3.26026283,10.1068148 L3.26026283,1.63013142 L7.17257823,1.63013142 L7.17257823,5.54244681 L5.21642053,5.54244681 L5.21642053,6.84655194 L7.82463079,6.84655194 L10.4328411,6.84655194 C10.8240726,6.84655194 11.0848936,6.58573092 11.0848936,6.19449938 L11.0848936,2.93423655 L13.6931039,2.93423655 L13.6931039,5.54244681 L12.3889988,5.54244681 L12.3889988,6.84655194 L14.3451565,6.84655194 L16.9533667,6.84655194 C17.3445983,6.84655194 17.6054193,6.58573092 17.6054193,6.19449938 L17.6054193,1.63013142 L21.5177347,1.63013142 L21.5177347,5.54244681 L19.561577,5.54244681 L19.561577,6.84655194 L22.1697872,6.84655194 L24.7779975,6.84655194 C25.1692291,6.84655194 25.4300501,6.58573092 25.4300501,6.19449938 L25.4300501,2.93423655 L28.0382603,2.93423655 L28.0382603,5.54244681 L26.7341552,5.54244681 L26.7341552,6.84655194 L28.6903129,6.84655194 L31.2985232,6.84655194 L33.9067334,6.84655194 L33.9067334,5.54244681 L31.9505757,5.54244681 L31.9505757,1.63013142 L35.8628911,1.63013142 L35.8628911,11.4109199 L33.9067334,11.4109199 L33.9067334,12.715025 L35.8628911,12.715025 L35.8628911,22.4958135 L31.2985232,22.4958135 L31.2985232,23.7999187 L35.8628911,23.7999187 L35.8628911,31.6245495 L28.6903129,31.6245495 L28.6903129,19.8876033 C28.6903129,17.6706245 26.9949762,15.9752879 24.7779975,15.9752879 L14.3451565,15.9752879 C12.1281777,15.9752879 10.4328411,17.6706245 10.4328411,19.8876033 L10.4328411,31.6245495 L3.26026283,31.6245495 L3.26026283,23.7999187 Z M11.7369462,30.3204443 L14.997209,30.3204443 L14.997209,29.0163392 L11.7369462,29.0163392 L11.7369462,23.1478661 L14.997209,23.1478661 L14.997209,21.843761 L11.7369462,21.843761 L11.7369462,19.8876033 C11.7369462,18.4530876 12.9106408,17.279393 14.3451565,17.279393 L18.9095244,17.279393 L18.9095244,29.6683918 L20.2136295,29.6683918 L20.2136295,17.279393 L24.7779975,17.279393 C26.2125132,17.279393 27.3862078,18.4530876 27.3862078,19.8876033 L27.3862078,20.5396558 L24.1259449,20.5396558 L24.1259449,21.843761 L27.3862078,21.843761 L27.3862078,27.7122341 L24.1259449,27.7122341 L24.1259449,29.0163392 L27.3862078,29.0163392 L27.3862078,31.6245495 L11.7369462,31.6245495 L11.7369462,30.3204443 Z M37.8190488,34.8848123 L1.30410513,34.8848123 L1.30410513,32.9286546 L2.60821026,32.9286546 L36.5149437,32.9286546 L37.8190488,32.9286546 L37.8190488,34.8848123 Z" id="Shape"></path>
                        <rect id="Rectangle-path" x="21.5177347" y="25.1040238" width="1.30410513" height="1.30410513"></rect>
                        <rect id="Rectangle-path" x="16.3013142" y="25.1040238" width="1.30410513" height="1.30410513"></rect>
                        <rect id="Rectangle-path" x="12.3889988" y="10.1068148" width="2.60821026" height="1.30410513"></rect>
                        <rect id="Rectangle-path" x="24.1259449" y="11.4109199" width="7.82463079" height="1.30410513"></rect>
                        <rect id="Rectangle-path" x="5.21642053" y="16.6273404" width="3.9123154" height="1.30410513"></rect>
                        <rect id="Rectangle-path" x="29.994418" y="16.6273404" width="3.9123154" height="1.30410513"></rect>
                        <rect id="Rectangle-path" x="30.6464706" y="27.7122341" width="2.60821026" height="1.30410513"></rect>
                        <rect id="Rectangle-path" x="5.8684731" y="27.7122341" width="2.60821026" height="1.30410513"></rect>
                    </g>
                </g>
            </g>
        </g>
    </g>
</svg>