
<svg width="50px" height="50px" viewBox="0 0 50 50" version="1.1" xmlns="http://www.w3.org/2000/svg" xmlns:xlink="http://www.w3.org/1999/xlink">
    <!-- Generator: Sketch 46.2 (44496) - http://www.bohemiancoding.com/sketch -->
    <desc>Created with Sketch.</desc>
    <defs>
        <path d="M46.7164328,41.3105311 L35.2886557,29.882282 C34.9199213,29.5135475 34.3217311,29.5135475 33.9534689,29.882282 L33.4961311,30.339777 L32.3748197,29.2184656 C37.8331279,22.1382295 37.3199213,11.9069902 30.8336262,5.42069508 C23.7891148,-1.62381639 12.327659,-1.62381639 5.28314754,5.42069508 C-1.76120656,12.4650492 -1.76120656,23.9266623 5.28314754,30.9710164 C8.80508852,34.4929574 13.4318164,36.2543213 18.0583869,36.2543213 C21.9522098,36.2543213 25.8455607,35.0069508 29.080918,32.5122098 L30.2022295,33.6335213 L29.7448918,34.090859 C29.5678426,34.2674361 29.468223,34.5077508 29.468223,34.7586098 C29.468223,35.0088393 29.5678426,35.2491541 29.7448918,35.4262033 L41.173141,46.853823 C41.9373639,47.6180459 42.9406426,47.9996852 43.9443934,47.9996852 C44.9483016,47.9996852 45.9522098,47.6180459 46.7164328,46.853823 C48.2447213,45.3255344 48.2447213,42.8388197 46.7164328,41.3105311 Z M6.6184918,29.6358295 C3.56254426,26.579882 1.87986885,22.5170361 1.87986885,18.195777 C1.87986885,13.8746754 3.56254426,9.81182951 6.6184918,6.75588197 C9.67443934,3.70056393 13.7366557,2.01741639 18.0583869,2.01741639 C22.3794885,2.01741639 26.4424918,3.70056393 29.4984393,6.75588197 C32.5537574,9.81182951 34.2369049,13.8746754 34.2369049,18.195777 C34.2369049,22.5170361 32.5537574,26.579882 29.4984393,29.6358295 C26.4424918,32.6911475 22.3794885,34.3742951 18.0583869,34.3742951 C13.7372852,34.3742951 9.67443934,32.691777 6.6184918,29.6358295 Z M30.5182426,31.2790033 C30.624,31.1776525 30.7291279,31.0755148 30.8336262,30.9710164 C30.9374951,30.866518 31.0401049,30.7613902 31.1409836,30.6556328 L32.1607869,31.6749639 L31.5375738,32.2983344 L30.5182426,31.2790033 Z M45.3810885,45.5186361 C44.5886951,46.3104 43.3002492,46.3104 42.5083279,45.5186361 L31.7476721,34.7586098 L34.6210623,31.8858492 L45.3810885,42.6458754 C46.1730098,43.4376393 46.1730098,44.7268721 45.3810885,45.5186361 Z" id="path-1"></path>
    </defs>
    <g id="Main---UI-" stroke="none" stroke-width="1" fill="none" fill-rule="evenodd">
        <g id="Groups" transform="translate(-400.000000, -184.000000)">
            <g id="search" transform="translate(401.000000, 185.000000)">
                <path d="M10.9790571,12 C11.2295326,12 11.4801712,11.9049349 11.6712505,11.7148046 C13.811143,9.58800632 16.8764077,8.59501377 19.8697117,9.05833459 C20.40444,9.1413949 20.9047382,8.77751934 20.9882844,8.24654979 C21.0711779,7.71493133 20.7053369,7.21738058 20.1710981,7.13496917 C16.5614777,6.57609654 12.8671688,7.7738198 10.2868637,10.338307 C9.90437875,10.7185675 9.90437875,11.335193 10.2868637,11.7148046 C10.4781062,11.9049349 10.7285817,12 10.9790571,12 Z" id="Fill-3" fill="#000000"></path>
                <g id="Group-8">
                    <g id="Fill-7">
                        <use fill="#000000" fill-rule="evenodd" xlink:href="#path-1"></use>
                        <path stroke="#000000" stroke-width="1" d="M29.4951227,33.6335213 L29.0344206,33.1728191 C25.8412539,35.5157862 21.9981008,36.7543213 18.0583869,36.7543213 C13.1627511,36.7543213 8.45256824,34.8475439 4.92959415,31.3245698 C-2.31002209,24.0849535 -2.31002209,12.3067579 4.92959415,5.06714169 C12.1693678,-2.17263193 23.947406,-2.17263193 31.1871796,5.06714169 C37.6913696,11.5713316 38.4088666,21.8499109 33.0354273,29.1719664 L33.4960704,29.6326095 L33.599689,29.5289551 C34.1632275,28.9646942 35.0781748,28.9646942 35.6422164,29.5287359 L47.0699935,40.9569851 C48.7935368,42.6805284 48.7935368,45.4838257 47.0699862,47.2073763 C46.2314722,48.0458903 45.109702,48.4996852 43.9443934,48.4996852 C42.7793576,48.4996852 41.6581651,48.0459538 40.8195973,47.2073861 L29.3913384,35.7797567 C29.1205306,35.5089489 28.968223,35.1414612 28.968223,34.7586098 C28.968223,34.3750495 29.1206065,34.0073149 29.3913384,33.7373056 L29.4951227,33.6335213 Z M6.97204519,29.2822761 C9.93401069,32.2442416 13.869591,33.8742951 18.0583869,33.8742951 C22.2466631,33.8742951 26.1825738,32.243978 29.1448495,29.2823125 C32.1066294,26.3199224 33.7369049,22.3841519 33.7369049,18.195777 C33.7369049,14.0075396 32.1066153,10.0717749 29.1449224,7.10947177 C26.1825738,4.14773343 22.2466631,2.51741639 18.0583869,2.51741639 C13.8697547,2.51741639 9.93455089,4.14753992 6.97204519,7.10943536 C4.01001358,10.071467 2.37986885,14.0070747 2.37986885,18.195777 C2.37986885,22.3846168 4.00999946,26.3202304 6.97204519,29.2822761 Z M31.1450036,31.366594 C31.1591749,31.3525237 31.1732233,31.3385261 31.1871796,31.3245698 C31.2011687,31.3104963 31.215065,31.2964831 31.2288723,31.2825261 C31.3239958,31.1863711 31.4148928,31.092884 31.5027836,31.0007426 L31.1409836,30.6556328 L30.7875121,31.009268 L31.8073154,32.0285992 L31.8071889,31.3214552 L31.1839757,31.9448257 L31.8911272,31.944781 L30.871796,30.9254499 L30.5182426,31.2790033 L30.8641953,31.6399974 C30.9671013,31.5413792 31.0583509,31.4526288 31.1450036,31.366594 Z M34.6210236,32.5929172 L32.454828,34.7586382 L42.8618461,45.1650475 C43.4585309,45.7616137 44.4305297,45.7616137 45.0276757,45.1649422 L45.0275703,45.1650475 C45.6241826,44.5685538 45.6241826,43.5959577 45.0275351,42.9994288 L34.6210236,32.5929172 Z"></path>
                    </g>
                </g>
            </g>
        </g>
    </g>
</svg>